%TF.GenerationSoftware,KiCad,Pcbnew,10.0.1*%
%TF.CreationDate,2026-06-06T05:47:04+09:00*%
%TF.ProjectId,phalwol,7068616c-776f-46c2-9e6b-696361645f70,rev?*%
%TF.SameCoordinates,Original*%
%TF.FileFunction,Paste,Top*%
%TF.FilePolarity,Positive*%
%FSLAX46Y46*%
G04 Gerber Fmt 4.6, Leading zero omitted, Abs format (unit mm)*
G04 Created by KiCad (PCBNEW 10.0.1) date 2026-06-06 05:47:04*
%MOMM*%
%LPD*%
G01*
G04 APERTURE LIST*
G04 Aperture macros list*
%AMRotRect*
0 Rectangle, with rotation*
0 The origin of the aperture is its center*
0 $1 length*
0 $2 width*
0 $3 Rotation angle, in degrees counterclockwise*
0 Add horizontal line*
21,1,$1,$2,0,0,$3*%
G04 Aperture macros list end*
%ADD10R,1.400000X0.940000*%
%ADD11R,2.500000X2.500000*%
%ADD12RotRect,2.500000X2.500000X210.000000*%
%ADD13RotRect,2.500000X2.500000X30.000000*%
%ADD14RotRect,2.500000X2.500000X165.000000*%
%ADD15R,1.700000X1.000000*%
G04 APERTURE END LIST*
D10*
%TO.C,D18*%
X108025000Y-95750000D03*
X104475000Y-95750000D03*
%TD*%
D11*
%TO.C,SW4*%
X105158000Y-44420000D03*
X118085000Y-46960000D03*
%TD*%
D10*
%TO.C,D11*%
X165025000Y-79250000D03*
X161475000Y-79250000D03*
%TD*%
%TO.C,D3*%
X160275000Y-60250000D03*
X156725000Y-60250000D03*
%TD*%
%TO.C,D38*%
X193525001Y-117249996D03*
X189975001Y-117249996D03*
%TD*%
D11*
%TO.C,SW24*%
X197592000Y-92580000D03*
X184665000Y-90040000D03*
%TD*%
%TO.C,SW19*%
X102592000Y-92580000D03*
X89665000Y-90040000D03*
%TD*%
%TO.C,SW20*%
X121592000Y-92580000D03*
X108665000Y-90040000D03*
%TD*%
%TO.C,SW3*%
X86158000Y-44420000D03*
X99085000Y-46960000D03*
%TD*%
D10*
%TO.C,D12*%
X165025000Y-76750000D03*
X161475000Y-76750000D03*
%TD*%
D11*
%TO.C,SW16*%
X190658000Y-63420000D03*
X203585000Y-65960000D03*
%TD*%
%TO.C,SW12*%
X114658000Y-63420000D03*
X127585000Y-65960000D03*
%TD*%
%TO.C,SW9*%
X64592000Y-73580000D03*
X51665000Y-71040000D03*
%TD*%
%TO.C,SW28*%
X131092000Y-111580000D03*
X118165000Y-109040000D03*
%TD*%
%TO.C,SW14*%
X152658000Y-63420000D03*
X165585000Y-65960000D03*
%TD*%
D10*
%TO.C,D37*%
X193525000Y-114750000D03*
X189975000Y-114750000D03*
%TD*%
D12*
%TO.C,SW40*%
X193773142Y-133645785D03*
X206238252Y-129381989D03*
%TD*%
D10*
%TO.C,D14*%
X184025000Y-76750000D03*
X180475000Y-76750000D03*
%TD*%
D11*
%TO.C,SW32*%
X207092000Y-111580000D03*
X194165000Y-109040000D03*
%TD*%
%TO.C,SW27*%
X112092000Y-111580000D03*
X99165000Y-109040000D03*
%TD*%
%TO.C,SW26*%
X85967000Y-111580000D03*
X73040000Y-109040000D03*
%TD*%
D10*
%TO.C,D15*%
X203025000Y-79250000D03*
X199475000Y-79250000D03*
%TD*%
%TO.C,D6*%
X179275000Y-57750000D03*
X175725000Y-57750000D03*
%TD*%
D11*
%TO.C,SW29*%
X150092000Y-111580000D03*
X137165000Y-109040000D03*
%TD*%
D10*
%TO.C,D16*%
X203025000Y-76750000D03*
X199475000Y-76750000D03*
%TD*%
%TO.C,D26*%
X117525000Y-114750000D03*
X113975000Y-114750000D03*
%TD*%
%TO.C,D19*%
X127025000Y-98250000D03*
X123475000Y-98250000D03*
%TD*%
%TO.C,D2*%
X141275000Y-57750000D03*
X137725000Y-57750000D03*
%TD*%
D11*
%TO.C,SW31*%
X188092000Y-111580000D03*
X175165000Y-109040000D03*
%TD*%
%TO.C,SW1*%
X69342000Y-54580000D03*
X56415000Y-52040000D03*
%TD*%
D10*
%TO.C,D36*%
X174525001Y-117249996D03*
X170975001Y-117249996D03*
%TD*%
%TO.C,D20*%
X127025000Y-95750000D03*
X123475000Y-95750000D03*
%TD*%
%TO.C,D13*%
X184025000Y-79250000D03*
X180475000Y-79250000D03*
%TD*%
%TO.C,D40*%
X193525001Y-122249996D03*
X189975001Y-122249996D03*
%TD*%
D11*
%TO.C,SW34*%
X83592000Y-130580000D03*
X70665000Y-128040000D03*
%TD*%
%TO.C,SW8*%
X181158000Y-44420000D03*
X194085000Y-46960000D03*
%TD*%
D10*
%TO.C,D4*%
X160275000Y-57750000D03*
X156725000Y-57750000D03*
%TD*%
D11*
%TO.C,SW35*%
X102592000Y-130580000D03*
X89665000Y-128040000D03*
%TD*%
D10*
%TO.C,D1*%
X141275000Y-60250000D03*
X137725000Y-60250000D03*
%TD*%
D13*
%TO.C,SW39*%
X200744541Y-141352603D03*
X188279431Y-145616399D03*
%TD*%
D10*
%TO.C,D28*%
X136525000Y-114750000D03*
X132975000Y-114750000D03*
%TD*%
D11*
%TO.C,SW6*%
X143158000Y-44420000D03*
X156085000Y-46960000D03*
%TD*%
D10*
%TO.C,D32*%
X203025001Y-98249996D03*
X199475001Y-98249996D03*
%TD*%
%TO.C,D21*%
X146025000Y-98250000D03*
X142475000Y-98250000D03*
%TD*%
%TO.C,D5*%
X179275000Y-60250000D03*
X175725000Y-60250000D03*
%TD*%
D11*
%TO.C,SW37*%
X142967000Y-130580000D03*
X130040000Y-128040000D03*
%TD*%
%TO.C,SW36*%
X121592000Y-130580000D03*
X108665000Y-128040000D03*
%TD*%
D10*
%TO.C,D10*%
X146025000Y-76750000D03*
X142475000Y-76750000D03*
%TD*%
%TO.C,D33*%
X155525000Y-114750000D03*
X151975000Y-114750000D03*
%TD*%
D11*
%TO.C,SW11*%
X95658000Y-63420000D03*
X108585000Y-65960000D03*
%TD*%
D10*
%TO.C,D25*%
X117525000Y-117250000D03*
X113975000Y-117250000D03*
%TD*%
D14*
%TO.C,SW38*%
X158601012Y-122478257D03*
X170430135Y-128277462D03*
%TD*%
D10*
%TO.C,D29*%
X184025000Y-95750000D03*
X180475000Y-95750000D03*
%TD*%
D11*
%TO.C,SW17*%
X71717000Y-92580000D03*
X58790000Y-90040000D03*
%TD*%
%TO.C,SW5*%
X124158000Y-44420000D03*
X137085000Y-46960000D03*
%TD*%
D10*
%TO.C,D24*%
X165025001Y-98249996D03*
X161475001Y-98249996D03*
%TD*%
D11*
%TO.C,SW1*%
X48158000Y-44420000D03*
X61085000Y-46960000D03*
%TD*%
%TO.C,SW21*%
X140592000Y-92580000D03*
X127665000Y-90040000D03*
%TD*%
D10*
%TO.C,D39*%
X193525000Y-119750000D03*
X189975000Y-119750000D03*
%TD*%
D12*
%TO.C,SW39*%
X177318660Y-143145785D03*
X189783770Y-138881989D03*
%TD*%
D10*
%TO.C,D34*%
X155525001Y-117249996D03*
X151975001Y-117249996D03*
%TD*%
%TO.C,D31*%
X203025000Y-95750000D03*
X199475000Y-95750000D03*
%TD*%
D11*
%TO.C,SW26*%
X64783000Y-101420000D03*
X77710000Y-103960000D03*
%TD*%
D10*
%TO.C,D17*%
X108025000Y-98249996D03*
X104475000Y-98249996D03*
%TD*%
%TO.C,D23*%
X165025000Y-95750000D03*
X161475000Y-95750000D03*
%TD*%
D11*
%TO.C,SW22*%
X159592000Y-92580000D03*
X146665000Y-90040000D03*
%TD*%
D10*
%TO.C,D35*%
X174525000Y-114750000D03*
X170975000Y-114750000D03*
%TD*%
D11*
%TO.C,SW13*%
X133658000Y-63420000D03*
X146585000Y-65960000D03*
%TD*%
D10*
%TO.C,D7*%
X198275000Y-60250000D03*
X194725000Y-60250000D03*
%TD*%
D11*
%TO.C,SW33*%
X52908000Y-120420000D03*
X65835000Y-122960000D03*
%TD*%
D10*
%TO.C,D9*%
X146025000Y-79250000D03*
X142475000Y-79250000D03*
%TD*%
%TO.C,D22*%
X146025000Y-95750000D03*
X142475000Y-95750000D03*
%TD*%
D11*
%TO.C,SW2*%
X67158000Y-44420000D03*
X80085000Y-46960000D03*
%TD*%
D10*
%TO.C,D27*%
X136525000Y-117249996D03*
X132975000Y-117249996D03*
%TD*%
%TO.C,D30*%
X184025000Y-98250000D03*
X180475000Y-98250000D03*
%TD*%
D15*
%TO.C,SW41*%
X86600000Y-59350000D03*
X92900000Y-59350000D03*
X86600000Y-63150000D03*
X92900000Y-63150000D03*
%TD*%
D11*
%TO.C,SW15*%
X171658000Y-63420000D03*
X184585000Y-65960000D03*
%TD*%
%TO.C,SW23*%
X178592000Y-92580000D03*
X165665000Y-90040000D03*
%TD*%
D10*
%TO.C,D8*%
X198275000Y-57750000D03*
X194725000Y-57750000D03*
%TD*%
D11*
%TO.C,SW30*%
X169092000Y-111580000D03*
X156165000Y-109040000D03*
%TD*%
%TO.C,SW7*%
X162158000Y-44420000D03*
X175085000Y-46960000D03*
%TD*%
%TO.C,SW10*%
X88342000Y-73580000D03*
X75415000Y-71040000D03*
%TD*%
%TO.C,SW25*%
X46915000Y-109040000D03*
X59842000Y-111580000D03*
%TD*%
M02*
