M48
; DRILL file KiCad 10.0.1 date 2026-06-05T23:39:20
; FORMAT={-:-/ absolute / metric / decimal}
; #@! TF.CreationDate,2026-06-05T23:39:20+09:00
; #@! TF.GenerationSoftware,Kicad,Pcbnew,10.0.1
; #@! TF.FileFunction,NonPlated,1,2,NPTH
FMAT,2
METRIC
; #@! TA.AperFunction,NonPlated,NPTH,ComponentDrill
T1C1.000
; #@! TA.AperFunction,NonPlated,NPTH,ComponentDrill
T2C1.702
; #@! TA.AperFunction,NonPlated,NPTH,ComponentDrill
T3C3.000
; #@! TA.AperFunction,NonPlated,NPTH,ComponentDrill
T4C3.048
; #@! TA.AperFunction,NonPlated,NPTH,ComponentDrill
T5C3.988
; #@! TA.AperFunction,NonPlated,NPTH,ComponentDrill
T6C4.000
%
G90
G05
T1
X199.5Y-41.1
X199.5Y-48.1
T2
X48.92Y-49.5
X48.92Y-68.5
X48.92Y-87.5
X48.92Y-106.5
X53.67Y-68.5
X53.67Y-125.5
X58.42Y-49.5
X59.08Y-49.5
X59.08Y-68.5
X59.08Y-87.5
X59.08Y-106.5
X60.795Y-87.5
X63.83Y-68.5
X63.83Y-125.5
X65.545Y-106.5
X67.92Y-49.5
X68.58Y-49.5
X70.295Y-87.5
X70.295Y-106.5
X70.955Y-87.5
X72.67Y-68.5
X72.67Y-125.5
X75.045Y-87.5
X75.045Y-106.5
X75.705Y-106.5
X77.42Y-68.5
X77.42Y-125.5
X78.08Y-49.5
X79.795Y-106.5
X80.455Y-87.5
X80.455Y-106.5
X82.83Y-68.5
X82.83Y-125.5
X85.205Y-87.5
X85.205Y-106.5
X86.92Y-49.5
X87.58Y-68.5
X87.58Y-125.5
X89.955Y-106.5
X91.67Y-87.5
X91.67Y-106.5
X91.67Y-125.5
X96.42Y-68.5
X97.08Y-49.5
X101.17Y-87.5
X101.17Y-106.5
X101.83Y-87.5
X101.83Y-106.5
X101.83Y-125.5
X105.92Y-49.5
X105.92Y-125.5
X106.58Y-68.5
X110.67Y-87.5
X110.67Y-106.5
X110.67Y-125.5
X111.33Y-87.5
X111.33Y-106.5
X115.42Y-68.5
X116.08Y-49.5
X116.08Y-125.5
X120.17Y-87.5
X120.17Y-106.5
X120.83Y-87.5
X120.83Y-106.5
X120.83Y-125.5
X124.92Y-49.5
X125.58Y-68.5
X129.67Y-87.5
X129.67Y-106.5
X130.33Y-87.5
X130.33Y-106.5
X132.045Y-125.5
X134.42Y-68.5
X135.08Y-49.5
X139.17Y-87.5
X139.17Y-106.5
X139.83Y-87.5
X139.83Y-106.5
X142.205Y-125.5
X143.92Y-49.5
X144.58Y-68.5
X148.67Y-87.5
X148.67Y-106.5
X149.33Y-87.5
X149.33Y-106.5
X153.42Y-68.5
X154.08Y-49.5
X158.022Y-127.582
X158.17Y-87.5
X158.17Y-106.5
X158.83Y-87.5
X158.83Y-106.5
X162.92Y-49.5
X163.58Y-68.5
X167.67Y-87.5
X167.67Y-106.5
X167.836Y-130.212
X168.33Y-87.5
X168.33Y-106.5
X172.42Y-68.5
X173.08Y-49.5
X177.17Y-87.5
X177.17Y-106.5
X177.83Y-87.5
X177.83Y-106.5
X180.519Y-147.164
X181.92Y-49.5
X182.58Y-68.5
X186.67Y-87.5
X186.67Y-106.5
X187.33Y-87.5
X187.33Y-106.5
X188.746Y-142.414
X189.317Y-142.084
X191.42Y-68.5
X192.08Y-49.5
X196.17Y-87.5
X196.17Y-106.5
X196.83Y-87.5
X196.83Y-106.5
X196.973Y-137.664
X197.545Y-137.334
X201.58Y-68.5
X205.772Y-132.584
X206.33Y-87.5
X206.33Y-106.5
T3
X50.19Y-46.96
X50.19Y-65.96
X50.19Y-84.96
X50.19Y-109.04
X51.46Y-44.42
X51.46Y-111.58
X54.94Y-71.04
X54.94Y-122.96
X56.21Y-120.42
X56.54Y-44.42
X56.54Y-63.42
X56.54Y-82.42
X56.54Y-111.58
X57.81Y-46.96
X57.81Y-109.04
X59.69Y-52.04
X61.29Y-73.58
X61.29Y-120.42
X62.065Y-90.04
X62.56Y-122.96
X66.04Y-54.58
X68.085Y-101.42
X68.415Y-92.58
X69.19Y-46.96
X70.46Y-44.42
X71.565Y-84.96
X71.565Y-103.96
X73.94Y-65.96
X73.94Y-128.04
X74.435Y-103.96
X75.54Y-44.42
X76.315Y-109.04
X76.81Y-46.96
X77.585Y-92.58
X77.915Y-82.42
X77.915Y-101.42
X78.69Y-71.04
X78.69Y-122.96
X80.29Y-63.42
X80.29Y-130.58
X82.335Y-111.58
X82.665Y-111.58
X83.935Y-90.04
X85.04Y-73.58
X85.04Y-120.42
X88.19Y-46.96
X88.685Y-109.04
X89.46Y-44.42
X92.94Y-90.04
X92.94Y-103.96
X92.94Y-128.04
X94.54Y-44.42
X95.81Y-46.96
X97.69Y-65.96
X98.96Y-63.42
X99.29Y-92.58
X99.29Y-101.42
X99.29Y-130.58
X102.44Y-84.96
X102.44Y-109.04
X104.04Y-63.42
X105.31Y-65.96
X107.19Y-46.96
X107.19Y-122.96
X108.46Y-44.42
X108.79Y-82.42
X108.79Y-111.58
X111.94Y-90.04
X111.94Y-103.96
X111.94Y-128.04
X113.54Y-44.42
X113.54Y-120.42
X114.81Y-46.96
X116.69Y-65.96
X117.96Y-63.42
X118.29Y-92.58
X118.29Y-101.42
X118.29Y-130.58
X121.44Y-84.96
X121.44Y-109.04
X123.04Y-63.42
X124.31Y-65.96
X126.19Y-46.96
X127.46Y-44.42
X127.79Y-82.42
X127.79Y-111.58
X130.94Y-90.04
X130.94Y-103.96
X132.54Y-44.42
X133.315Y-128.04
X133.81Y-46.96
X134.585Y-130.58
X135.69Y-65.96
X136.96Y-63.42
X137.29Y-92.58
X137.29Y-101.42
X139.665Y-130.58
X140.44Y-84.96
X140.44Y-109.04
X140.935Y-128.04
X142.04Y-63.42
X143.31Y-65.96
X145.19Y-46.96
X146.46Y-44.42
X146.79Y-82.42
X146.79Y-111.58
X149.94Y-90.04
X149.94Y-103.96
X151.54Y-44.42
X152.81Y-46.96
X154.69Y-65.96
X155.96Y-63.42
X156.29Y-92.58
X156.29Y-101.42
X159.44Y-84.96
X159.44Y-109.04
X159.906Y-125.458
X161.04Y-63.42
X161.79Y-123.333
X162.31Y-65.96
X164.19Y-46.96
X165.46Y-44.42
X165.79Y-82.42
X165.79Y-111.58
X166.697Y-124.648
X167.267Y-127.43
X168.94Y-90.04
X168.94Y-103.96
X170.54Y-44.42
X171.81Y-46.96
X173.69Y-65.96
X174.96Y-63.42
X175.29Y-92.58
X175.29Y-101.42
X178.44Y-84.96
X178.44Y-109.04
X180.04Y-63.42
X180.178Y-141.495
X180.348Y-144.329
X181.31Y-65.96
X183.19Y-46.96
X184.46Y-44.42
X184.578Y-138.955
X184.79Y-82.42
X184.79Y-111.58
X186.948Y-140.519
X187.94Y-90.04
X187.94Y-103.96
X189.54Y-44.42
X190.81Y-46.96
X191.116Y-143.979
X192.69Y-65.96
X193.486Y-145.544
X193.96Y-63.42
X194.29Y-92.58
X194.29Y-101.42
X196.633Y-131.995
X196.803Y-134.829
X197.44Y-84.96
X197.44Y-109.04
X197.715Y-140.169
X197.885Y-143.004
X199.04Y-63.42
X200.31Y-65.96
X201.032Y-129.455
X203.402Y-131.019
X203.79Y-82.42
X203.79Y-111.58
T4
X51.562Y-56.485
X53.937Y-80.515
X58.687Y-99.515
X72.937Y-113.485
X75.438Y-56.485
X77.813Y-80.515
X82.563Y-99.515
X96.813Y-113.485
X186.299Y-151.892
X206.976Y-139.954
T5
X51.562Y-41.245
X53.937Y-95.755
X58.687Y-114.755
X72.937Y-98.245
X75.438Y-41.245
X77.813Y-95.755
X82.563Y-114.755
X96.813Y-98.245
X178.679Y-138.694
X199.356Y-126.756
T6
X54.0Y-49.5
X54.0Y-68.5
X54.0Y-87.5
X54.0Y-106.5
X58.75Y-68.5
X58.75Y-125.5
X63.5Y-49.5
X65.875Y-87.5
X70.625Y-106.5
X73.0Y-49.5
X75.375Y-87.5
X75.375Y-106.5
X77.75Y-68.5
X77.75Y-125.5
X80.125Y-87.5
X80.125Y-106.5
X82.5Y-68.5
X82.5Y-125.5
X84.875Y-106.5
X92.0Y-49.5
X96.75Y-87.5
X96.75Y-106.5
X96.75Y-125.5
X101.5Y-68.5
X106.25Y-87.5
X106.25Y-106.5
X111.0Y-49.5
X111.0Y-125.5
X115.75Y-87.5
X115.75Y-106.5
X115.75Y-125.5
X120.5Y-68.5
X125.25Y-87.5
X125.25Y-106.5
X130.0Y-49.5
X134.75Y-87.5
X134.75Y-106.5
X137.125Y-125.5
X139.5Y-68.5
X144.25Y-87.5
X144.25Y-106.5
X149.0Y-49.5
X153.75Y-87.5
X153.75Y-106.5
X158.5Y-68.5
X162.929Y-128.897
X163.25Y-87.5
X163.25Y-106.5
X168.0Y-49.5
X172.75Y-87.5
X172.75Y-106.5
X177.5Y-68.5
X182.25Y-87.5
X182.25Y-106.5
X184.918Y-144.624
X187.0Y-49.5
X191.75Y-87.5
X191.75Y-106.5
X193.145Y-139.874
X196.5Y-68.5
X201.25Y-87.5
X201.25Y-106.5
X201.372Y-135.124
M30
