M48
; DRILL file KiCad 10.0.1 date 2026-06-06T05:47:02
; FORMAT={-:-/ absolute / metric / decimal}
; #@! TF.CreationDate,2026-06-06T05:47:02+09:00
; #@! TF.GenerationSoftware,Kicad,Pcbnew,10.0.1
; #@! TF.FileFunction,Plated,1,2,PTH
FMAT,2
METRIC
; #@! TA.AperFunction,Plated,PTH,ViaDrill
T1C0.300
; #@! TA.AperFunction,Plated,PTH,ComponentDrill
T2C0.300
; #@! TA.AperFunction,Plated,PTH,ComponentDrill
T3C0.813
; #@! TA.AperFunction,Plated,PTH,ComponentDrill
T4C0.900
; #@! TA.AperFunction,Plated,PTH,ComponentDrill
T5C1.100
%
G90
G05
T1
X47.25Y-74.25
X48.5Y-63.0
X49.0Y-72.5
X49.0Y-74.5
X49.0Y-96.75
X49.25Y-56.5
X49.25Y-130.0
X51.0Y-63.25
X52.5Y-52.75
X52.75Y-63.0
X53.0Y-74.0
X53.75Y-63.0
X54.0Y-55.5
X54.0Y-65.25
X54.75Y-74.0
X55.25Y-57.5
X56.625Y-41.625
X57.0Y-55.5
X57.75Y-57.75
X59.25Y-56.75
X61.0Y-57.25
X62.25Y-70.5
X62.75Y-62.75
X63.0Y-54.5
X63.5Y-53.75
X63.5Y-70.5
X64.0Y-64.5
X64.25Y-96.0
X65.25Y-62.75
X65.75Y-51.5
X67.0Y-72.0
X67.0Y-82.0
X67.75Y-62.75
X67.75Y-74.25
X68.25Y-130.5
X70.25Y-62.75
X70.5Y-74.25
X70.875Y-82.0
X72.75Y-62.75
X73.0Y-74.25
X75.25Y-62.75
X75.5Y-74.25
X77.75Y-62.75
X78.0Y-74.25
X79.5Y-98.0
X79.75Y-53.5
X80.0Y-54.75
X80.75Y-59.0
X81.0Y-54.75
X81.5Y-76.25
X81.5Y-77.25
X82.0Y-54.75
X82.5Y-44.375
X82.75Y-84.75
X83.75Y-84.75
X83.75Y-85.75
X84.0Y-82.5
X84.5Y-53.5
X84.75Y-85.75
X85.0Y-78.0
X85.0Y-79.0
X85.0Y-80.0
X85.0Y-83.5
X86.0Y-78.0
X86.0Y-84.5
X88.25Y-97.5
X89.75Y-54.25
X89.75Y-59.35
X90.25Y-116.0
X93.25Y-84.75
X95.75Y-110.25
X96.75Y-120.25
X98.0Y-54.25
X99.75Y-58.75
X106.75Y-101.25
X107.25Y-93.0
X107.75Y-58.5
X109.0Y-54.5
X117.25Y-54.25
X125.25Y-121.0
X125.25Y-130.75
X126.0Y-101.25
X128.0Y-54.5
X130.0Y-54.5
X131.0Y-55.5
X132.0Y-56.5
X132.25Y-121.0
X132.643Y-79.5
X135.25Y-77.0
X136.0Y-53.25
X136.25Y-77.0
X137.0Y-53.25
X137.25Y-77.0
X138.0Y-53.25
X143.0Y-72.75
X144.0Y-72.75
X145.0Y-72.75
X147.0Y-59.75
X148.75Y-63.0
X151.0Y-84.75
X151.415Y-71.75
X152.0Y-77.75
X153.75Y-111.0
X161.0Y-116.0
X165.25Y-58.75
X168.0Y-69.0
X170.415Y-71.75
X171.25Y-139.0
X173.75Y-119.5
X177.5Y-44.75
X180.0Y-116.25
X186.25Y-60.0
X186.75Y-69.25
X189.25Y-77.75
X189.763Y-72.987
X192.75Y-70.5
X196.75Y-54.344
X205.75Y-49.5
X206.75Y-59.5
X209.5Y-134.0
T2
X47.65Y-65.198
X47.65Y-84.198
X48.349Y-45.817
X48.349Y-110.183
X52.4Y-71.802
X53.098Y-121.817
X57.15Y-52.802
X59.08Y-64.182
X59.08Y-83.182
X59.525Y-90.802
X59.651Y-45.817
X59.651Y-110.183
X63.83Y-72.818
X64.401Y-121.817
X65.545Y-102.182
X67.349Y-45.817
X68.58Y-53.818
X69.025Y-84.198
X69.025Y-103.198
X70.955Y-91.818
X71.4Y-65.198
X71.4Y-128.802
X73.775Y-109.802
X75.045Y-91.818
X76.15Y-71.802
X76.15Y-122.198
X76.975Y-103.198
X78.651Y-45.817
X79.795Y-110.818
X80.455Y-83.182
X80.455Y-102.182
X82.83Y-64.182
X82.83Y-129.818
X85.205Y-110.818
X86.349Y-45.817
X86.475Y-90.802
X87.58Y-72.818
X87.58Y-121.182
X90.4Y-90.802
X90.4Y-103.198
X90.4Y-128.802
X91.225Y-109.802
X95.849Y-64.817
X97.651Y-45.817
X99.9Y-84.198
X99.9Y-109.802
X101.83Y-91.818
X101.83Y-102.182
X101.83Y-129.818
X104.65Y-122.198
X105.349Y-45.817
X107.151Y-64.817
X109.4Y-90.802
X109.4Y-103.198
X109.4Y-128.802
X111.33Y-83.182
X111.33Y-110.818
X114.849Y-64.817
X116.08Y-121.182
X116.651Y-45.817
X118.9Y-84.198
X118.9Y-109.802
X120.83Y-91.818
X120.83Y-102.182
X120.83Y-129.818
X124.349Y-45.817
X126.151Y-64.817
X128.4Y-90.802
X128.4Y-103.198
X130.33Y-83.182
X130.33Y-110.818
X131.474Y-129.183
X133.849Y-64.817
X135.651Y-45.817
X137.9Y-84.198
X137.9Y-109.802
X139.83Y-91.818
X139.83Y-102.182
X142.776Y-129.183
X143.349Y-45.817
X145.151Y-64.817
X147.4Y-90.802
X147.4Y-103.198
X149.33Y-83.182
X149.33Y-110.818
X152.849Y-64.817
X154.651Y-45.817
X156.9Y-84.198
X156.9Y-109.802
X158.423Y-123.877
X158.83Y-91.818
X158.83Y-102.182
X162.349Y-45.817
X164.151Y-64.817
X166.4Y-90.802
X166.4Y-103.198
X168.33Y-83.182
X168.33Y-110.818
X169.341Y-126.802
X171.849Y-64.817
X173.651Y-45.817
X175.9Y-84.198
X175.9Y-109.802
X177.83Y-91.818
X177.83Y-102.182
X178.182Y-144.26
X181.349Y-45.817
X183.151Y-64.817
X185.4Y-90.802
X185.4Y-103.198
X187.33Y-83.182
X187.33Y-110.818
X187.971Y-138.609
X190.092Y-145.89
X190.849Y-64.817
X192.651Y-45.817
X194.637Y-134.76
X194.9Y-84.198
X194.9Y-109.802
X196.83Y-91.818
X196.83Y-102.182
X199.881Y-140.238
X202.151Y-64.817
X204.425Y-129.109
X206.33Y-83.182
X206.33Y-110.818
T3
X102.44Y-95.75
X102.44Y-98.25
X110.06Y-95.75
X110.06Y-98.25
X111.94Y-114.75
X111.94Y-117.25
X119.56Y-114.75
X119.56Y-117.25
X121.44Y-95.75
X121.44Y-98.25
X129.06Y-95.75
X129.06Y-98.25
X130.94Y-114.75
X130.94Y-117.25
X135.69Y-57.75
X135.69Y-60.25
X138.56Y-114.75
X138.56Y-117.25
X140.44Y-76.75
X140.44Y-79.25
X140.44Y-95.75
X140.44Y-98.25
X143.31Y-57.75
X143.31Y-60.25
X148.06Y-76.75
X148.06Y-79.25
X148.06Y-95.75
X148.06Y-98.25
X149.94Y-114.75
X149.94Y-117.25
X154.69Y-57.75
X154.69Y-60.25
X157.56Y-114.75
X157.56Y-117.25
X159.44Y-76.75
X159.44Y-79.25
X159.44Y-95.75
X159.44Y-98.25
X162.31Y-57.75
X162.31Y-60.25
X167.06Y-76.75
X167.06Y-79.25
X167.06Y-95.75
X167.06Y-98.25
X168.94Y-114.75
X168.94Y-117.25
X173.69Y-57.75
X173.69Y-60.25
X176.56Y-114.75
X176.56Y-117.25
X178.44Y-76.75
X178.44Y-79.25
X178.44Y-95.75
X178.44Y-98.25
X181.31Y-57.75
X181.31Y-60.25
X186.06Y-76.75
X186.06Y-79.25
X186.06Y-95.75
X186.06Y-98.25
X187.94Y-114.75
X187.94Y-119.75
X187.94Y-117.25
X187.94Y-122.25
X192.69Y-57.75
X192.69Y-60.25
X195.56Y-114.75
X195.56Y-119.75
X195.56Y-117.25
X195.56Y-122.25
X197.44Y-76.75
X197.44Y-79.25
X197.44Y-95.75
X197.44Y-98.25
X200.31Y-57.75
X200.31Y-60.25
X205.06Y-76.75
X205.06Y-79.25
X205.06Y-95.75
X205.06Y-98.25
T5
X48.78Y-60.88
X48.78Y-76.12
X51.32Y-60.88
X51.32Y-76.12
X53.86Y-60.88
X53.86Y-76.12
X56.4Y-60.88
X56.4Y-76.12
X58.94Y-60.88
X58.94Y-76.12
X61.48Y-60.88
X61.48Y-76.12
X64.02Y-60.88
X64.02Y-76.12
X66.56Y-60.88
X66.56Y-76.12
X69.1Y-60.88
X69.1Y-76.12
X71.64Y-60.88
X71.64Y-76.12
X74.18Y-60.88
X74.18Y-76.12
X76.72Y-60.88
X76.72Y-76.12
T4
G00X197.2Y-42.5
M15
G01X197.2Y-42.9
M16
G05
G00X197.2Y-45.5
M15
G01X197.2Y-45.9
M16
G05
G00X197.2Y-49.5
M15
G01X197.2Y-49.9
M16
G05
G00X197.2Y-50.6
M15
G01X197.2Y-51.0
M16
G05
G00X201.8Y-42.5
M15
G01X201.8Y-42.9
M16
G05
G00X201.8Y-45.5
M15
G01X201.8Y-45.9
M16
G05
G00X201.8Y-49.5
M15
G01X201.8Y-49.9
M16
G05
G00X201.8Y-50.6
M15
G01X201.8Y-51.0
M16
G05
M30
