%TF.GenerationSoftware,KiCad,Pcbnew,10.0.1*%
%TF.CreationDate,2026-05-29T14:10:21+09:00*%
%TF.ProjectId,phalwol,7068616c-776f-46c2-9e6b-696361645f70,rev?*%
%TF.SameCoordinates,Original*%
%TF.FileFunction,Soldermask,Bot*%
%TF.FilePolarity,Negative*%
%FSLAX46Y46*%
G04 Gerber Fmt 4.6, Leading zero omitted, Abs format (unit mm)*
G04 Created by KiCad (PCBNEW 10.0.1) date 2026-05-29 14:10:21*
%MOMM*%
%LPD*%
G01*
G04 APERTURE LIST*
G04 Aperture macros list*
%AMRotRect*
0 Rectangle, with rotation*
0 The origin of the aperture is its center*
0 $1 length*
0 $2 width*
0 $3 Rotation angle, in degrees counterclockwise*
0 Add horizontal line*
21,1,$1,$2,0,0,$3*%
%AMFreePoly0*
4,1,73,0.689121,1.154551,0.719509,1.154551,0.728665,1.150758,0.734986,1.150152,0.741726,1.145348,0.755557,1.139619,0.769929,1.125246,0.777139,1.120108,0.778876,1.116299,0.783147,1.112029,0.798079,1.075981,0.798302,1.073714,0.798622,1.073013,0.798498,1.071722,0.800000,1.056472,0.800000,0.000000,0.798079,-0.019509,0.796148,-0.024170,0.796148,-0.078414,0.765552,-0.232228,
0.705537,-0.377117,0.618408,-0.507515,0.507515,-0.618408,0.377117,-0.705537,0.232228,-0.765552,0.078414,-0.796148,-0.078414,-0.796148,-0.232228,-0.765552,-0.377117,-0.705537,-0.507515,-0.618408,-0.618408,-0.507515,-0.705537,-0.377117,-0.765552,-0.232228,-0.796148,-0.078414,-0.796148,-0.024170,-0.798079,-0.019509,-0.800000,0.000000,-0.800000,1.056472,-0.798498,1.071722,-0.798622,1.073013,
-0.798302,1.073714,-0.798079,1.075981,-0.783147,1.112029,-0.778876,1.116299,-0.777139,1.120108,-0.769929,1.125246,-0.755557,1.139619,-0.741726,1.145348,-0.734986,1.150152,-0.728665,1.150758,-0.719509,1.154551,-0.689121,1.154551,-0.683459,1.155094,-0.682269,1.154551,-0.680491,1.154551,-0.644443,1.139619,-0.640172,1.135348,-0.636364,1.133611,-0.569740,1.078531,-0.419475,0.993027,
-0.256768,0.934575,-0.086444,0.904909,0.086444,0.904909,0.256768,0.934575,0.419475,0.993027,0.569740,1.078531,0.636364,1.133611,0.640172,1.135348,0.644443,1.139619,0.680491,1.154551,0.682269,1.154551,0.683459,1.155094,0.689121,1.154551,0.689121,1.154551,$1*%
%AMFreePoly1*
4,1,57,0.500000,-1.650000,-0.645018,-1.650000,-0.664527,-1.648079,-0.669746,-1.645916,-0.673684,-1.645803,-0.681179,-1.641180,-0.700575,-1.633147,-0.710813,-1.622908,-0.717744,-1.618635,-0.720855,-1.612866,-0.728165,-1.605557,-0.739307,-1.578657,-0.742318,-1.573076,-0.742272,-1.571499,-0.743097,-1.569509,-0.743097,-1.530491,-0.740933,-1.525269,-0.740820,-1.521333,-0.736199,-1.513840,-0.728165,-1.494443,
-0.717925,-1.484203,-0.713652,-1.477273,-0.654349,-1.421209,-0.555381,-1.291420,-0.478767,-1.147301,-0.426537,-0.992666,-0.400072,-0.831609,-0.400000,-0.750000,-0.400000,0.750000,-0.400072,0.831608,-0.426538,0.992666,-0.478768,1.147300,-0.555381,1.291419,-0.654349,1.421209,-0.713652,1.477273,-0.717926,1.484205,-0.728164,1.494443,-0.736197,1.513837,-0.740820,1.521334,-0.740933,1.525271,
-0.743096,1.530491,-0.743096,1.569509,-0.742272,1.571497,-0.742318,1.573076,-0.739303,1.578665,-0.728164,1.605557,-0.720856,1.612864,-0.717744,1.618635,-0.710811,1.622909,-0.700574,1.633147,-0.681179,1.641180,-0.673683,1.645803,-0.669745,1.645916,-0.664526,1.648079,-0.645017,1.650000,0.500000,1.650000,0.500000,-1.650000,0.500000,-1.650000,$1*%
%AMFreePoly2*
4,1,67,0.419509,1.648079,0.455557,1.633147,0.483147,1.605557,0.498079,1.569509,0.500000,1.550000,0.500000,-1.550000,0.498079,-1.569509,0.483147,-1.605557,0.455557,-1.633147,0.419509,-1.648079,0.400000,-1.650000,-0.645018,-1.650000,-0.664527,-1.648079,-0.669746,-1.645916,-0.673684,-1.645803,-0.681179,-1.641180,-0.700575,-1.633147,-0.710813,-1.622908,-0.717744,-1.618635,-0.720855,-1.612866,
-0.728165,-1.605557,-0.739307,-1.578657,-0.742318,-1.573076,-0.742272,-1.571499,-0.743097,-1.569509,-0.743097,-1.530491,-0.740933,-1.525269,-0.740820,-1.521333,-0.736199,-1.513840,-0.728165,-1.494443,-0.717925,-1.484203,-0.713652,-1.477273,-0.654349,-1.421209,-0.555381,-1.291420,-0.478767,-1.147301,-0.426537,-0.992666,-0.400072,-0.831609,-0.400000,-0.750000,-0.400000,0.750000,-0.400072,0.831608,
-0.426538,0.992666,-0.478768,1.147300,-0.555381,1.291419,-0.654349,1.421209,-0.713652,1.477273,-0.717926,1.484205,-0.728164,1.494443,-0.736197,1.513837,-0.740820,1.521334,-0.740933,1.525271,-0.743096,1.530491,-0.743096,1.569509,-0.742272,1.571497,-0.742318,1.573076,-0.739303,1.578665,-0.728164,1.605557,-0.720856,1.612864,-0.717744,1.618635,-0.710811,1.622909,-0.700574,1.633147,
-0.681179,1.641180,-0.673683,1.645803,-0.669745,1.645916,-0.664526,1.648079,-0.645017,1.650000,0.400000,1.650000,0.419509,1.648079,0.419509,1.648079,$1*%
%AMFreePoly3*
4,1,6,1.000000,0.000000,0.500000,-0.750000,-0.500000,-0.750000,-0.500000,0.750000,0.500000,0.750000,1.000000,0.000000,1.000000,0.000000,$1*%
%AMFreePoly4*
4,1,6,0.500000,-0.750000,-0.650000,-0.750000,-0.150000,0.000000,-0.650000,0.750000,0.500000,0.750000,0.500000,-0.750000,0.500000,-0.750000,$1*%
G04 Aperture macros list end*
%ADD10C,0.000000*%
%ADD11C,1.701800*%
%ADD12C,3.000000*%
%ADD13C,4.000000*%
%ADD14R,2.500000X2.500000*%
%ADD15C,1.600000*%
%ADD16FreePoly0,0.000000*%
%ADD17FreePoly0,180.000000*%
%ADD18R,1.600000X1.600000*%
%ADD19R,1.397000X1.397000*%
%ADD20R,1.400000X0.940000*%
%ADD21C,1.397000*%
%ADD22C,0.600000*%
%ADD23RotRect,2.500000X2.500000X210.000000*%
%ADD24RotRect,2.500000X2.500000X30.000000*%
%ADD25O,1.600000X2.000000*%
%ADD26C,0.800000*%
%ADD27FreePoly1,0.000000*%
%ADD28FreePoly2,180.000000*%
%ADD29RotRect,2.500000X2.500000X165.000000*%
%ADD30FreePoly3,90.000000*%
%ADD31FreePoly4,90.000000*%
%ADD32R,1.700000X1.000000*%
G04 APERTURE END LIST*
D10*
%TO.C,JP2*%
G36*
X206500000Y-48700000D02*
G01*
X205000000Y-48700000D01*
X205000000Y-46250000D01*
X206500000Y-46250000D01*
X206500000Y-48700000D01*
G37*
%TD*%
D11*
%TO.C,SW34*%
X77420000Y-125500000D03*
D12*
X78690000Y-122960000D03*
X79960000Y-120420000D03*
D13*
X82500000Y-125500000D03*
D12*
X85040000Y-120420000D03*
X86310000Y-122960000D03*
D11*
X87580000Y-125500000D03*
D14*
X75415000Y-122960000D03*
X88342000Y-120420000D03*
%TD*%
D15*
%TO.C,U1*%
X48780000Y-60880000D03*
X48780000Y-76120000D03*
X51320000Y-60880000D03*
X51320000Y-76120000D03*
X53860000Y-60880000D03*
X53860000Y-76120000D03*
X56400000Y-60880000D03*
X56400000Y-76120000D03*
X58940000Y-60880000D03*
X58940000Y-76120000D03*
X61480000Y-60880000D03*
X61480000Y-76120000D03*
X64020000Y-60880000D03*
X64020000Y-76120000D03*
X66560000Y-60880000D03*
X66560000Y-76120000D03*
X69100000Y-60880000D03*
X69100000Y-76120000D03*
X71640000Y-60880000D03*
X71640000Y-76120000D03*
X74180000Y-60880000D03*
X74180000Y-76120000D03*
X76720000Y-60880000D03*
X76720000Y-76120000D03*
D16*
X48780000Y-78025000D03*
X51320000Y-78025000D03*
X53860000Y-78025000D03*
X56400000Y-78025000D03*
X58940000Y-78025000D03*
X61480000Y-78025000D03*
X64020000Y-78025000D03*
X66560000Y-78025000D03*
X69100000Y-78025000D03*
X71640000Y-78025000D03*
X74180000Y-78025000D03*
X76720000Y-78025000D03*
D17*
X76720000Y-58975000D03*
X74180000Y-58975000D03*
X71640000Y-58975000D03*
X69100000Y-58975000D03*
X66560000Y-58975000D03*
X64020000Y-58975000D03*
X61480000Y-58975000D03*
X58940000Y-58975000D03*
X56400000Y-58975000D03*
X53860000Y-58975000D03*
X51320000Y-58975000D03*
D18*
X48780000Y-58975000D03*
D17*
X48780000Y-58975000D03*
%TD*%
D19*
%TO.C,D18*%
X110060000Y-95750000D03*
D20*
X108025000Y-95750000D03*
X104475000Y-95750000D03*
D21*
X102440000Y-95750000D03*
%TD*%
D11*
%TO.C,SW4*%
X105920000Y-49500000D03*
D12*
X107190000Y-46960000D03*
X108460000Y-44420000D03*
D13*
X111000000Y-49500000D03*
D12*
X113540000Y-44420000D03*
X114810000Y-46960000D03*
D11*
X116080000Y-49500000D03*
D14*
X103915000Y-46960000D03*
X116842000Y-44420000D03*
%TD*%
D19*
%TO.C,D11*%
X167060000Y-79250000D03*
D20*
X165025000Y-79250000D03*
X161475000Y-79250000D03*
D21*
X159440000Y-79250000D03*
%TD*%
D19*
%TO.C,D3*%
X162310000Y-60250000D03*
D20*
X160275000Y-60250000D03*
X156725000Y-60250000D03*
D21*
X154690000Y-60250000D03*
%TD*%
D19*
%TO.C,D38*%
X195560001Y-117249996D03*
D20*
X193525001Y-117249996D03*
X189975001Y-117249996D03*
D21*
X187940001Y-117249996D03*
%TD*%
D11*
%TO.C,SW24*%
X196830000Y-87500000D03*
D12*
X194290000Y-92580000D03*
D13*
X191750000Y-87500000D03*
D12*
X187940000Y-90040000D03*
D11*
X186670000Y-87500000D03*
D22*
X196830000Y-91818000D03*
X185400000Y-90802000D03*
%TD*%
D11*
%TO.C,SW19*%
X101830000Y-87500000D03*
D12*
X99290000Y-92580000D03*
D13*
X96750000Y-87500000D03*
D12*
X92940000Y-90040000D03*
D11*
X91670000Y-87500000D03*
D22*
X101830000Y-91818000D03*
X90400000Y-90802000D03*
%TD*%
D11*
%TO.C,SW20*%
X120830000Y-87500000D03*
D12*
X118290000Y-92580000D03*
D13*
X115750000Y-87500000D03*
D12*
X111940000Y-90040000D03*
D11*
X110670000Y-87500000D03*
D22*
X120830000Y-91818000D03*
X109400000Y-90802000D03*
%TD*%
D11*
%TO.C,SW3*%
X86920000Y-49500000D03*
D12*
X88190000Y-46960000D03*
X89460000Y-44420000D03*
D13*
X92000000Y-49500000D03*
D12*
X94540000Y-44420000D03*
X95810000Y-46960000D03*
D11*
X97080000Y-49500000D03*
D14*
X84915000Y-46960000D03*
X97842000Y-44420000D03*
%TD*%
D19*
%TO.C,D12*%
X167060000Y-76750000D03*
D20*
X165025000Y-76750000D03*
X161475000Y-76750000D03*
D21*
X159440000Y-76750000D03*
%TD*%
D11*
%TO.C,SW16*%
X191420000Y-68500000D03*
D12*
X192690000Y-65960000D03*
X193960000Y-63420000D03*
D13*
X196500000Y-68500000D03*
D12*
X199040000Y-63420000D03*
X200310000Y-65960000D03*
D11*
X201580000Y-68500000D03*
D14*
X189415000Y-65960000D03*
X202342000Y-63420000D03*
%TD*%
D11*
%TO.C,SW12*%
X115420000Y-68500000D03*
D12*
X116690000Y-65960000D03*
X117960000Y-63420000D03*
D13*
X120500000Y-68500000D03*
D12*
X123040000Y-63420000D03*
X124310000Y-65960000D03*
D11*
X125580000Y-68500000D03*
D14*
X113415000Y-65960000D03*
X126342000Y-63420000D03*
%TD*%
D11*
%TO.C,SW35*%
X105920000Y-125500000D03*
D12*
X107190000Y-122960000D03*
X108460000Y-120420000D03*
D13*
X111000000Y-125500000D03*
D12*
X113540000Y-120420000D03*
X114810000Y-122960000D03*
D11*
X116080000Y-125500000D03*
D14*
X103915000Y-122960000D03*
X116842000Y-120420000D03*
%TD*%
D11*
%TO.C,SW9*%
X63830000Y-68500000D03*
D12*
X61290000Y-73580000D03*
D13*
X58750000Y-68500000D03*
D12*
X54940000Y-71040000D03*
D11*
X53670000Y-68500000D03*
D22*
X63830000Y-72818000D03*
X52400000Y-71802000D03*
%TD*%
D11*
%TO.C,SW28*%
X130330000Y-106500000D03*
D12*
X127790000Y-111580000D03*
D13*
X125250000Y-106500000D03*
D12*
X121440000Y-109040000D03*
D11*
X120170000Y-106500000D03*
D22*
X130330000Y-110818000D03*
X118900000Y-109802000D03*
%TD*%
D11*
%TO.C,SW14*%
X153420000Y-68500000D03*
D12*
X154690000Y-65960000D03*
X155960000Y-63420000D03*
D13*
X158500000Y-68500000D03*
D12*
X161040000Y-63420000D03*
X162310000Y-65960000D03*
D11*
X163580000Y-68500000D03*
D14*
X151415000Y-65960000D03*
X164342000Y-63420000D03*
%TD*%
D19*
%TO.C,D37*%
X195560000Y-114750000D03*
D20*
X193525000Y-114750000D03*
X189975000Y-114750000D03*
D21*
X187940000Y-114750000D03*
%TD*%
D11*
%TO.C,SW40*%
X196973053Y-137664194D03*
D12*
X196802905Y-134829489D03*
X196632757Y-131994785D03*
D13*
X201372462Y-135124194D03*
D12*
X201032167Y-129454784D03*
X203402019Y-131019490D03*
D11*
X205771871Y-132584194D03*
D23*
X193966672Y-136466989D03*
X203891782Y-127803785D03*
%TD*%
D19*
%TO.C,D14*%
X186060000Y-76750000D03*
D20*
X184025000Y-76750000D03*
X180475000Y-76750000D03*
D21*
X178440000Y-76750000D03*
%TD*%
D11*
%TO.C,SW32*%
X206330000Y-106500000D03*
D12*
X203790000Y-111580000D03*
D13*
X201250000Y-106500000D03*
D12*
X197440000Y-109040000D03*
D11*
X196170000Y-106500000D03*
D22*
X206330000Y-110818000D03*
X194900000Y-109802000D03*
%TD*%
D11*
%TO.C,SW27*%
X111330000Y-106500000D03*
D12*
X108790000Y-111580000D03*
D13*
X106250000Y-106500000D03*
D12*
X102440000Y-109040000D03*
D11*
X101170000Y-106500000D03*
D22*
X111330000Y-110818000D03*
X99900000Y-109802000D03*
%TD*%
D11*
%TO.C,SW26*%
X85205000Y-106500000D03*
D12*
X82665000Y-111580000D03*
D13*
X80125000Y-106500000D03*
D12*
X76315000Y-109040000D03*
D11*
X75045000Y-106500000D03*
D22*
X85205000Y-110818000D03*
X73775000Y-109802000D03*
%TD*%
D19*
%TO.C,D15*%
X205060000Y-79250000D03*
D20*
X203025000Y-79250000D03*
X199475000Y-79250000D03*
D21*
X197440000Y-79250000D03*
%TD*%
D19*
%TO.C,D6*%
X181310000Y-57750000D03*
D20*
X179275000Y-57750000D03*
X175725000Y-57750000D03*
D21*
X173690000Y-57750000D03*
%TD*%
D11*
%TO.C,SW29*%
X149330000Y-106500000D03*
D12*
X146790000Y-111580000D03*
D13*
X144250000Y-106500000D03*
D12*
X140440000Y-109040000D03*
D11*
X139170000Y-106500000D03*
D22*
X149330000Y-110818000D03*
X137900000Y-109802000D03*
%TD*%
D19*
%TO.C,D16*%
X205060000Y-76750000D03*
D20*
X203025000Y-76750000D03*
X199475000Y-76750000D03*
D21*
X197440000Y-76750000D03*
%TD*%
D19*
%TO.C,D26*%
X119560000Y-114750000D03*
D20*
X117525000Y-114750000D03*
X113975000Y-114750000D03*
D21*
X111940000Y-114750000D03*
%TD*%
D19*
%TO.C,D19*%
X129060000Y-98250000D03*
D20*
X127025000Y-98250000D03*
X123475000Y-98250000D03*
D21*
X121440000Y-98250000D03*
%TD*%
D19*
%TO.C,D2*%
X143310000Y-57750000D03*
D20*
X141275000Y-57750000D03*
X137725000Y-57750000D03*
D21*
X135690000Y-57750000D03*
%TD*%
D11*
%TO.C,SW31*%
X187330000Y-106500000D03*
D12*
X184790000Y-111580000D03*
D13*
X182250000Y-106500000D03*
D12*
X178440000Y-109040000D03*
D11*
X177170000Y-106500000D03*
D22*
X187330000Y-110818000D03*
X175900000Y-109802000D03*
%TD*%
D11*
%TO.C,SW1*%
X68580000Y-49500000D03*
D12*
X66040000Y-54580000D03*
D13*
X63500000Y-49500000D03*
D12*
X59690000Y-52040000D03*
D11*
X58420000Y-49500000D03*
D22*
X68580000Y-53818000D03*
X57150000Y-52802000D03*
%TD*%
D19*
%TO.C,D36*%
X176560001Y-117249996D03*
D20*
X174525001Y-117249996D03*
X170975001Y-117249996D03*
D21*
X168940001Y-117249996D03*
%TD*%
D19*
%TO.C,D20*%
X129060000Y-95750000D03*
D20*
X127025000Y-95750000D03*
X123475000Y-95750000D03*
D21*
X121440000Y-95750000D03*
%TD*%
D19*
%TO.C,D13*%
X186060000Y-79250000D03*
D20*
X184025000Y-79250000D03*
X180475000Y-79250000D03*
D21*
X178440000Y-79250000D03*
%TD*%
D19*
%TO.C,D40*%
X195560001Y-122249996D03*
D20*
X193525001Y-122249996D03*
X189975001Y-122249996D03*
D21*
X187940001Y-122249996D03*
%TD*%
D11*
%TO.C,SW34*%
X82830000Y-125500000D03*
D12*
X81560000Y-128040000D03*
X80290000Y-130580000D03*
D13*
X77750000Y-125500000D03*
D12*
X75210000Y-130580000D03*
X73940000Y-128040000D03*
D11*
X72670000Y-125500000D03*
D14*
X84835000Y-128040000D03*
X71908000Y-130580000D03*
%TD*%
D11*
%TO.C,SW8*%
X181920000Y-49500000D03*
D12*
X183190000Y-46960000D03*
X184460000Y-44420000D03*
D13*
X187000000Y-49500000D03*
D12*
X189540000Y-44420000D03*
X190810000Y-46960000D03*
D11*
X192080000Y-49500000D03*
D14*
X179915000Y-46960000D03*
X192842000Y-44420000D03*
%TD*%
D19*
%TO.C,D4*%
X162310000Y-57750000D03*
D20*
X160275000Y-57750000D03*
X156725000Y-57750000D03*
D21*
X154690000Y-57750000D03*
%TD*%
D11*
%TO.C,SW35*%
X101830000Y-125500000D03*
D12*
X100560000Y-128040000D03*
X99290000Y-130580000D03*
D13*
X96750000Y-125500000D03*
D12*
X94210000Y-130580000D03*
X92940000Y-128040000D03*
D11*
X91670000Y-125500000D03*
D14*
X103835000Y-128040000D03*
X90908000Y-130580000D03*
%TD*%
D19*
%TO.C,D1*%
X143310000Y-60250000D03*
D20*
X141275000Y-60250000D03*
X137725000Y-60250000D03*
D21*
X135690000Y-60250000D03*
%TD*%
D11*
%TO.C,SW39*%
X197544630Y-137334194D03*
D12*
X197714778Y-140168899D03*
X197884925Y-143003601D03*
D13*
X193145221Y-139874194D03*
D12*
X193485514Y-145543605D03*
X191115664Y-143978898D03*
D11*
X188745812Y-142414194D03*
D24*
X200551011Y-138531399D03*
X190625901Y-147194603D03*
%TD*%
D19*
%TO.C,D28*%
X138560000Y-114750000D03*
D20*
X136525000Y-114750000D03*
X132975000Y-114750000D03*
D21*
X130940000Y-114750000D03*
%TD*%
D11*
%TO.C,SW6*%
X143920000Y-49500000D03*
D12*
X145190000Y-46960000D03*
X146460000Y-44420000D03*
D13*
X149000000Y-49500000D03*
D12*
X151540000Y-44420000D03*
X152810000Y-46960000D03*
D11*
X154080000Y-49500000D03*
D14*
X141915000Y-46960000D03*
X154842000Y-44420000D03*
%TD*%
D19*
%TO.C,D32*%
X205060001Y-98249996D03*
D20*
X203025001Y-98249996D03*
X199475001Y-98249996D03*
D21*
X197440001Y-98249996D03*
%TD*%
D19*
%TO.C,D21*%
X148060000Y-98250000D03*
D20*
X146025000Y-98250000D03*
X142475000Y-98250000D03*
D21*
X140440000Y-98250000D03*
%TD*%
D19*
%TO.C,D5*%
X181310000Y-60250000D03*
D20*
X179275000Y-60250000D03*
X175725000Y-60250000D03*
D21*
X173690000Y-60250000D03*
%TD*%
D25*
%TO.C,J1*%
X197200000Y-49700000D03*
X197200000Y-50800000D03*
D26*
X199500000Y-41100000D03*
X199500000Y-41100000D03*
X199500000Y-48100000D03*
X199500000Y-48100000D03*
D25*
X201800000Y-49700000D03*
X201800000Y-50800000D03*
X197200000Y-45700000D03*
X201800000Y-45700000D03*
X197200000Y-42700000D03*
X201800000Y-42700000D03*
D27*
X198600000Y-50250000D03*
D28*
X200400000Y-50250000D03*
%TD*%
D11*
%TO.C,SW37*%
X142205000Y-125500000D03*
D12*
X140935000Y-128040000D03*
X139665000Y-130580000D03*
D13*
X137125000Y-125500000D03*
D12*
X134585000Y-130580000D03*
X133315000Y-128040000D03*
D11*
X132045000Y-125500000D03*
D14*
X144210000Y-128040000D03*
X131283000Y-130580000D03*
%TD*%
D11*
%TO.C,SW36*%
X120830000Y-125500000D03*
D12*
X119560000Y-128040000D03*
X118290000Y-130580000D03*
D13*
X115750000Y-125500000D03*
D12*
X113210000Y-130580000D03*
X111940000Y-128040000D03*
D11*
X110670000Y-125500000D03*
D14*
X122835000Y-128040000D03*
X109908000Y-130580000D03*
%TD*%
D19*
%TO.C,D10*%
X148060000Y-76750000D03*
D20*
X146025000Y-76750000D03*
X142475000Y-76750000D03*
D21*
X140440000Y-76750000D03*
%TD*%
D19*
%TO.C,D33*%
X157560000Y-114750000D03*
D20*
X155525000Y-114750000D03*
X151975000Y-114750000D03*
D21*
X149940000Y-114750000D03*
%TD*%
D11*
%TO.C,SW11*%
X96420000Y-68500000D03*
D12*
X97690000Y-65960000D03*
X98960000Y-63420000D03*
D13*
X101500000Y-68500000D03*
D12*
X104040000Y-63420000D03*
X105310000Y-65960000D03*
D11*
X106580000Y-68500000D03*
D14*
X94415000Y-65960000D03*
X107342000Y-63420000D03*
%TD*%
D19*
%TO.C,D25*%
X119560000Y-117250000D03*
D20*
X117525000Y-117250000D03*
X113975000Y-117250000D03*
D21*
X111940000Y-117250000D03*
%TD*%
D11*
%TO.C,SW38*%
X158022247Y-127582380D03*
D12*
X159906373Y-125457629D03*
X161790498Y-123332877D03*
D13*
X162929150Y-128897181D03*
D12*
X166697402Y-124647678D03*
X167266728Y-127429830D03*
D11*
X167836053Y-130211982D03*
D29*
X156742966Y-124609996D03*
X169886889Y-125502299D03*
%TD*%
D19*
%TO.C,D29*%
X186060000Y-95750000D03*
D20*
X184025000Y-95750000D03*
X180475000Y-95750000D03*
D21*
X178440000Y-95750000D03*
%TD*%
D11*
%TO.C,SW17*%
X70955000Y-87500000D03*
D12*
X68415000Y-92580000D03*
D13*
X65875000Y-87500000D03*
D12*
X62065000Y-90040000D03*
D11*
X60795000Y-87500000D03*
D22*
X70955000Y-91818000D03*
X59525000Y-90802000D03*
%TD*%
D11*
%TO.C,SW5*%
X124920000Y-49500000D03*
D12*
X126190000Y-46960000D03*
X127460000Y-44420000D03*
D13*
X130000000Y-49500000D03*
D12*
X132540000Y-44420000D03*
X133810000Y-46960000D03*
D11*
X135080000Y-49500000D03*
D14*
X122915000Y-46960000D03*
X135842000Y-44420000D03*
%TD*%
D19*
%TO.C,D24*%
X167060001Y-98249996D03*
D20*
X165025001Y-98249996D03*
X161475001Y-98249996D03*
D21*
X159440001Y-98249996D03*
%TD*%
D11*
%TO.C,SW1*%
X48920000Y-49500000D03*
D12*
X50190000Y-46960000D03*
X51460000Y-44420000D03*
D13*
X54000000Y-49500000D03*
D12*
X56540000Y-44420000D03*
X57810000Y-46960000D03*
D11*
X59080000Y-49500000D03*
D14*
X46915000Y-46960000D03*
X59842000Y-44420000D03*
%TD*%
D11*
%TO.C,SW21*%
X139830000Y-87500000D03*
D12*
X137290000Y-92580000D03*
D13*
X134750000Y-87500000D03*
D12*
X130940000Y-90040000D03*
D11*
X129670000Y-87500000D03*
D22*
X139830000Y-91818000D03*
X128400000Y-90802000D03*
%TD*%
D19*
%TO.C,D39*%
X195560000Y-119750000D03*
D20*
X193525000Y-119750000D03*
X189975000Y-119750000D03*
D21*
X187940000Y-119750000D03*
%TD*%
D11*
%TO.C,SW39*%
X180518571Y-147164194D03*
D12*
X180348423Y-144329489D03*
X180178275Y-141494785D03*
D13*
X184917980Y-144624194D03*
D12*
X184577685Y-138954784D03*
X186947537Y-140519490D03*
D11*
X189317389Y-142084194D03*
D23*
X177512190Y-145966989D03*
X187437300Y-137303785D03*
%TD*%
D19*
%TO.C,D34*%
X157560001Y-117249996D03*
D20*
X155525001Y-117249996D03*
X151975001Y-117249996D03*
D21*
X149940001Y-117249996D03*
%TD*%
D19*
%TO.C,D31*%
X205060000Y-95750000D03*
D20*
X203025000Y-95750000D03*
X199475000Y-95750000D03*
D21*
X197440000Y-95750000D03*
%TD*%
D11*
%TO.C,SW26*%
X65545000Y-106500000D03*
D12*
X68085000Y-101420000D03*
D13*
X70625000Y-106500000D03*
D12*
X74435000Y-103960000D03*
D11*
X75705000Y-106500000D03*
D22*
X65545000Y-102182000D03*
X76975000Y-103198000D03*
%TD*%
D19*
%TO.C,D17*%
X110060000Y-98249996D03*
D20*
X108025000Y-98249996D03*
X104475000Y-98249996D03*
D21*
X102440000Y-98249996D03*
%TD*%
D19*
%TO.C,D23*%
X167060000Y-95750000D03*
D20*
X165025000Y-95750000D03*
X161475000Y-95750000D03*
D21*
X159440000Y-95750000D03*
%TD*%
D11*
%TO.C,SW22*%
X158830000Y-87500000D03*
D12*
X156290000Y-92580000D03*
D13*
X153750000Y-87500000D03*
D12*
X149940000Y-90040000D03*
D11*
X148670000Y-87500000D03*
D22*
X158830000Y-91818000D03*
X147400000Y-90802000D03*
%TD*%
D19*
%TO.C,D35*%
X176560000Y-114750000D03*
D20*
X174525000Y-114750000D03*
X170975000Y-114750000D03*
D21*
X168940000Y-114750000D03*
%TD*%
D11*
%TO.C,SW13*%
X134420000Y-68500000D03*
D12*
X135690000Y-65960000D03*
X136960000Y-63420000D03*
D13*
X139500000Y-68500000D03*
D12*
X142040000Y-63420000D03*
X143310000Y-65960000D03*
D11*
X144580000Y-68500000D03*
D14*
X132415000Y-65960000D03*
X145342000Y-63420000D03*
%TD*%
D19*
%TO.C,D7*%
X200310000Y-60250000D03*
D20*
X198275000Y-60250000D03*
X194725000Y-60250000D03*
D21*
X192690000Y-60250000D03*
%TD*%
D11*
%TO.C,SW33*%
X53670000Y-125500000D03*
D12*
X54940000Y-122960000D03*
X56210000Y-120420000D03*
D13*
X58750000Y-125500000D03*
D12*
X61290000Y-120420000D03*
X62560000Y-122960000D03*
D11*
X63830000Y-125500000D03*
D14*
X51665000Y-122960000D03*
X64592000Y-120420000D03*
%TD*%
D19*
%TO.C,D9*%
X148060000Y-79250000D03*
D20*
X146025000Y-79250000D03*
X142475000Y-79250000D03*
D21*
X140440000Y-79250000D03*
%TD*%
D19*
%TO.C,D22*%
X148060000Y-95750000D03*
D20*
X146025000Y-95750000D03*
X142475000Y-95750000D03*
D21*
X140440000Y-95750000D03*
%TD*%
D11*
%TO.C,SW2*%
X67920000Y-49500000D03*
D12*
X69190000Y-46960000D03*
X70460000Y-44420000D03*
D13*
X73000000Y-49500000D03*
D12*
X75540000Y-44420000D03*
X76810000Y-46960000D03*
D11*
X78080000Y-49500000D03*
D14*
X65915000Y-46960000D03*
X78842000Y-44420000D03*
%TD*%
D19*
%TO.C,D27*%
X138560000Y-117249996D03*
D20*
X136525000Y-117249996D03*
X132975000Y-117249996D03*
D21*
X130940000Y-117249996D03*
%TD*%
D19*
%TO.C,D30*%
X186060000Y-98250000D03*
D20*
X184025000Y-98250000D03*
X180475000Y-98250000D03*
D21*
X178440000Y-98250000D03*
%TD*%
D11*
%TO.C,SW15*%
X172420000Y-68500000D03*
D12*
X173690000Y-65960000D03*
X174960000Y-63420000D03*
D13*
X177500000Y-68500000D03*
D12*
X180040000Y-63420000D03*
X181310000Y-65960000D03*
D11*
X182580000Y-68500000D03*
D14*
X170415000Y-65960000D03*
X183342000Y-63420000D03*
%TD*%
D11*
%TO.C,SW23*%
X177830000Y-87500000D03*
D12*
X175290000Y-92580000D03*
D13*
X172750000Y-87500000D03*
D12*
X168940000Y-90040000D03*
D11*
X167670000Y-87500000D03*
D22*
X177830000Y-91818000D03*
X166400000Y-90802000D03*
%TD*%
D19*
%TO.C,D8*%
X200310000Y-57750000D03*
D20*
X198275000Y-57750000D03*
X194725000Y-57750000D03*
D21*
X192690000Y-57750000D03*
%TD*%
D11*
%TO.C,SW30*%
X168330000Y-106500000D03*
D12*
X165790000Y-111580000D03*
D13*
X163250000Y-106500000D03*
D12*
X159440000Y-109040000D03*
D11*
X158170000Y-106500000D03*
D22*
X168330000Y-110818000D03*
X156900000Y-109802000D03*
%TD*%
D11*
%TO.C,SW7*%
X162920000Y-49500000D03*
D12*
X164190000Y-46960000D03*
X165460000Y-44420000D03*
D13*
X168000000Y-49500000D03*
D12*
X170540000Y-44420000D03*
X171810000Y-46960000D03*
D11*
X173080000Y-49500000D03*
D14*
X160915000Y-46960000D03*
X173842000Y-44420000D03*
%TD*%
D11*
%TO.C,SW10*%
X87580000Y-68500000D03*
D12*
X85040000Y-73580000D03*
D13*
X82500000Y-68500000D03*
D12*
X78690000Y-71040000D03*
D11*
X77420000Y-68500000D03*
D22*
X87580000Y-72818000D03*
X76150000Y-71802000D03*
%TD*%
D11*
%TO.C,SW25*%
X48920000Y-106500000D03*
D12*
X50190000Y-109040000D03*
X51460000Y-111580000D03*
D13*
X54000000Y-106500000D03*
D12*
X56540000Y-111580000D03*
X57810000Y-109040000D03*
D11*
X59080000Y-106500000D03*
D14*
X48158000Y-111580000D03*
X61085000Y-109040000D03*
%TD*%
D11*
%TO.C,SW17*%
X59080000Y-87500000D03*
D12*
X56540000Y-82420000D03*
D13*
X54000000Y-87500000D03*
D12*
X50190000Y-84960000D03*
D11*
X48920000Y-87500000D03*
D14*
X59842000Y-82420000D03*
D22*
X59080000Y-83182000D03*
X47650000Y-84198000D03*
D14*
X46915000Y-84960000D03*
%TD*%
D11*
%TO.C,SW28*%
X120830000Y-106500000D03*
D12*
X118290000Y-101420000D03*
D13*
X115750000Y-106500000D03*
D12*
X111940000Y-103960000D03*
D11*
X110670000Y-106500000D03*
D14*
X121592000Y-101420000D03*
D22*
X120830000Y-102182000D03*
X109400000Y-103198000D03*
D14*
X108665000Y-103960000D03*
%TD*%
D11*
%TO.C,SW18*%
X75045000Y-87500000D03*
D12*
X77585000Y-92580000D03*
D13*
X80125000Y-87500000D03*
D12*
X83935000Y-90040000D03*
D11*
X85205000Y-87500000D03*
D14*
X74283000Y-92580000D03*
D22*
X75045000Y-91818000D03*
X86475000Y-90802000D03*
D14*
X87210000Y-90040000D03*
%TD*%
D11*
%TO.C,SW9*%
X59080000Y-68500000D03*
D12*
X56540000Y-63420000D03*
D13*
X54000000Y-68500000D03*
D12*
X50190000Y-65960000D03*
D11*
X48920000Y-68500000D03*
D14*
X59842000Y-63420000D03*
D22*
X59080000Y-64182000D03*
X47650000Y-65198000D03*
D14*
X46915000Y-65960000D03*
%TD*%
D11*
%TO.C,SW24*%
X206330000Y-87500000D03*
D12*
X203790000Y-82420000D03*
D13*
X201250000Y-87500000D03*
D12*
X197440000Y-84960000D03*
D11*
X196170000Y-87500000D03*
D14*
X207092000Y-82420000D03*
D22*
X206330000Y-83182000D03*
X194900000Y-84198000D03*
D14*
X194165000Y-84960000D03*
%TD*%
D11*
%TO.C,SW22*%
X168330000Y-87500000D03*
D12*
X165790000Y-82420000D03*
D13*
X163250000Y-87500000D03*
D12*
X159440000Y-84960000D03*
D11*
X158170000Y-87500000D03*
D14*
X169092000Y-82420000D03*
D22*
X168330000Y-83182000D03*
X156900000Y-84198000D03*
D14*
X156165000Y-84960000D03*
%TD*%
D11*
%TO.C,SW30*%
X158830000Y-106500000D03*
D12*
X156290000Y-101420000D03*
D13*
X153750000Y-106500000D03*
D12*
X149940000Y-103960000D03*
D11*
X148670000Y-106500000D03*
D14*
X159592000Y-101420000D03*
D22*
X158830000Y-102182000D03*
X147400000Y-103198000D03*
D14*
X146665000Y-103960000D03*
%TD*%
D30*
%TO.C,JP2*%
X205750000Y-48200000D03*
D31*
X205750000Y-46750000D03*
%TD*%
D11*
%TO.C,SW20*%
X130330000Y-87500000D03*
D12*
X127790000Y-82420000D03*
D13*
X125250000Y-87500000D03*
D12*
X121440000Y-84960000D03*
D11*
X120170000Y-87500000D03*
D14*
X131092000Y-82420000D03*
D22*
X130330000Y-83182000D03*
X118900000Y-84198000D03*
D14*
X118165000Y-84960000D03*
%TD*%
D11*
%TO.C,REF\u002A\u002A*%
X80455000Y-87500000D03*
D12*
X77915000Y-82420000D03*
D13*
X75375000Y-87500000D03*
D12*
X71565000Y-84960000D03*
D11*
X70295000Y-87500000D03*
D14*
X81217000Y-82420000D03*
D22*
X80455000Y-83182000D03*
X69025000Y-84198000D03*
D14*
X68290000Y-84960000D03*
%TD*%
D11*
%TO.C,SW26*%
X80455000Y-106500000D03*
D12*
X77915000Y-101420000D03*
D13*
X75375000Y-106500000D03*
D12*
X71565000Y-103960000D03*
D11*
X70295000Y-106500000D03*
D14*
X81217000Y-101420000D03*
D22*
X80455000Y-102182000D03*
X69025000Y-103198000D03*
D14*
X68290000Y-103960000D03*
%TD*%
D11*
%TO.C,SW10*%
X82830000Y-68500000D03*
D12*
X80290000Y-63420000D03*
D13*
X77750000Y-68500000D03*
D12*
X73940000Y-65960000D03*
D11*
X72670000Y-68500000D03*
D14*
X83592000Y-63420000D03*
D22*
X82830000Y-64182000D03*
X71400000Y-65198000D03*
D14*
X70665000Y-65960000D03*
%TD*%
D11*
%TO.C,SW27*%
X101830000Y-106500000D03*
D12*
X99290000Y-101420000D03*
D13*
X96750000Y-106500000D03*
D12*
X92940000Y-103960000D03*
D11*
X91670000Y-106500000D03*
D14*
X102592000Y-101420000D03*
D22*
X101830000Y-102182000D03*
X90400000Y-103198000D03*
D14*
X89665000Y-103960000D03*
%TD*%
D32*
%TO.C,SW41*%
X92900000Y-59350000D03*
X86600000Y-59350000D03*
X92900000Y-63150000D03*
X86600000Y-63150000D03*
%TD*%
D11*
%TO.C,SW19*%
X111330000Y-87500000D03*
D12*
X108790000Y-82420000D03*
D13*
X106250000Y-87500000D03*
D12*
X102440000Y-84960000D03*
D11*
X101170000Y-87500000D03*
D14*
X112092000Y-82420000D03*
D22*
X111330000Y-83182000D03*
X99900000Y-84198000D03*
D14*
X99165000Y-84960000D03*
%TD*%
D11*
%TO.C,SW29*%
X139830000Y-106500000D03*
D12*
X137290000Y-101420000D03*
D13*
X134750000Y-106500000D03*
D12*
X130940000Y-103960000D03*
D11*
X129670000Y-106500000D03*
D14*
X140592000Y-101420000D03*
D22*
X139830000Y-102182000D03*
X128400000Y-103198000D03*
D14*
X127665000Y-103960000D03*
%TD*%
D11*
%TO.C,SW26*%
X79795000Y-106500000D03*
D12*
X82335000Y-111580000D03*
D13*
X84875000Y-106500000D03*
D12*
X88685000Y-109040000D03*
D11*
X89955000Y-106500000D03*
D14*
X79033000Y-111580000D03*
D22*
X79795000Y-110818000D03*
X91225000Y-109802000D03*
D14*
X91960000Y-109040000D03*
%TD*%
D11*
%TO.C,SW23*%
X187330000Y-87500000D03*
D12*
X184790000Y-82420000D03*
D13*
X182250000Y-87500000D03*
D12*
X178440000Y-84960000D03*
D11*
X177170000Y-87500000D03*
D14*
X188092000Y-82420000D03*
D22*
X187330000Y-83182000D03*
X175900000Y-84198000D03*
D14*
X175165000Y-84960000D03*
%TD*%
D11*
%TO.C,SW32*%
X196830000Y-106500000D03*
D12*
X194290000Y-101420000D03*
D13*
X191750000Y-106500000D03*
D12*
X187940000Y-103960000D03*
D11*
X186670000Y-106500000D03*
D14*
X197592000Y-101420000D03*
D22*
X196830000Y-102182000D03*
X185400000Y-103198000D03*
D14*
X184665000Y-103960000D03*
%TD*%
D11*
%TO.C,SW21*%
X149330000Y-87500000D03*
D12*
X146790000Y-82420000D03*
D13*
X144250000Y-87500000D03*
D12*
X140440000Y-84960000D03*
D11*
X139170000Y-87500000D03*
D14*
X150092000Y-82420000D03*
D22*
X149330000Y-83182000D03*
X137900000Y-84198000D03*
D14*
X137165000Y-84960000D03*
%TD*%
D11*
%TO.C,SW31*%
X177830000Y-106500000D03*
D12*
X175290000Y-101420000D03*
D13*
X172750000Y-106500000D03*
D12*
X168940000Y-103960000D03*
D11*
X167670000Y-106500000D03*
D14*
X178592000Y-101420000D03*
D22*
X177830000Y-102182000D03*
X166400000Y-103198000D03*
D14*
X165665000Y-103960000D03*
%TD*%
M02*
